<svg xmlns="http://www.w3.org/2000/svg" xmlns:xlink="http://www.w3.org/1999/xlink" data-name="Layer 1" preserveAspectRatio="xMidYMid meet" version="1.0" viewBox="-10.4 -9.4 515.0 493.9" zoomAndPan="magnify" style="fill: rgb(0, 0, 0);" original_string_length="1031"><g data-name="Layer 1-2"><g id="__id0_szz5galego"><path d="M487.68,419.86c17,41-3.95,64.58-46.63,52.43L43.1,359.35c-42.61-12-53.45-49.2-23.94-82.29L244.32,23.76C273.83-9.45,311.83-3,328.89,38Z" style="fill: rgb(255, 213, 30);"/></g><g id="__id1_szz5galego"><path d="M461.77,478a78.82,78.82,0,0,1-21.4-3.3L42.42,361.76C21,355.73,6.51,343.35,1.7,326.88s.71-34.79,15.59-51.49L242.45,22.1C257.29,5.4,274.76-2.25,291.64.57S322.59,16.33,331.2,37L490,418.91c8.61,20.77,8.12,38.1-1.39,48.78C482.51,474.52,473.29,478,461.77,478ZM284.76,5C271.52,5,258,12.09,246.19,25.42L21,278.72c-13.7,15.36-18.86,32-14.53,46.75S24.05,351.4,43.78,357l398,112.94c19.65,5.59,35,3.63,43.12-5.53s8.35-24.63.51-43.54L326.58,38.91C318.66,19.9,306,8,290.82,5.51A36.27,36.27,0,0,0,284.76,5Z" style="fill: rgb(255, 213, 30);"/></g></g></svg>