<svg xmlns="http://www.w3.org/2000/svg" xmlns:xlink="http://www.w3.org/1999/xlink" preserveAspectRatio="xMidYMid meet" version="1.0" viewBox="10.5 10.9 82.4 74.1" zoomAndPan="magnify" style="fill: rgb(255, 145, 77);" original_string_length="7902"><g id="__id31_sf98cgbsb"><path d="M17.76,19.03c-0.04,0-0.08,0-0.12-0.01c-0.27-0.07-0.43-0.34-0.37-0.6l1.74-7.08c0.04-0.17,0.17-0.31,0.35-0.36 c0.17-0.05,0.36,0,0.49,0.12l5.26,5.05c0.2,0.19,0.21,0.51,0.01,0.71c-0.19,0.2-0.51,0.21-0.71,0.01l-4.63-4.45l-1.54,6.24 C18.19,18.87,17.99,19.03,17.76,19.03z" style="fill: inherit;"/></g><g id="__id32_sf98cgbsb"><path d="M92.33,85.05c-0.19,0-0.38-0.11-0.46-0.3c-0.53-1.22-1.06-2.44-1.6-3.66c-0.11-0.25,0-0.55,0.25-0.66 c0.26-0.11,0.55,0,0.66,0.25c0.54,1.22,1.07,2.45,1.6,3.67c0.11,0.25-0.01,0.55-0.26,0.66C92.46,85.04,92.4,85.05,92.33,85.05z M89.06,77.75c-0.19,0-0.37-0.1-0.45-0.29c-0.62-1.29-1.2-2.45-1.79-3.55c-0.13-0.24-0.04-0.55,0.21-0.68s0.55-0.04,0.68,0.21 c0.59,1.11,1.18,2.29,1.81,3.59c0.12,0.25,0.01,0.55-0.24,0.67C89.21,77.73,89.13,77.75,89.06,77.75z M22.88,76.03 c-0.44-0.02-0.81-0.02-1.22-0.05c-0.27-0.02-0.48-0.26-0.46-0.54c0.02-0.27,0.27-0.47,0.54-0.46c0.37,0.03,0.74,0.05,1.12,0.05 c0,0,0.01,0,0.01,0c0.87,0,1.79-0.08,2.72-0.25c0.28-0.04,0.53,0.13,0.58,0.41c0.05,0.27-0.13,0.53-0.4,0.58 C24.78,75.94,23.81,76.03,22.88,76.03z M17.85,75c-0.07,0-0.14-0.01-0.21-0.04c-0.84-0.38-1.64-0.87-2.37-1.45 c-0.36-0.29-0.71-0.6-1.04-0.93c-0.19-0.2-0.19-0.51,0.01-0.71c0.2-0.19,0.51-0.19,0.71,0.01c0.3,0.3,0.62,0.59,0.95,0.85 c0.67,0.53,1.4,0.97,2.17,1.32c0.25,0.11,0.36,0.41,0.25,0.66C18.22,74.89,18.04,75,17.85,75z M29.53,74.69 c-0.2,0-0.39-0.12-0.47-0.32c-0.1-0.26,0.03-0.55,0.29-0.65c1.19-0.45,2.38-1.02,3.55-1.67c0.24-0.13,0.55-0.05,0.68,0.19 c0.14,0.24,0.05,0.54-0.19,0.68c-1.21,0.68-2.45,1.26-3.68,1.73C29.65,74.68,29.59,74.69,29.53,74.69z M36.5,70.8 c-0.15,0-0.3-0.07-0.4-0.2c-0.17-0.22-0.12-0.53,0.1-0.7c0.47-0.35,0.94-0.72,1.38-1.09c0.56-0.47,1.11-0.95,1.66-1.44 c0.21-0.19,0.52-0.17,0.71,0.04c0.18,0.21,0.17,0.52-0.04,0.71c-0.56,0.5-1.11,0.99-1.68,1.46c-0.46,0.38-0.93,0.76-1.42,1.13 C36.71,70.77,36.61,70.8,36.5,70.8z M85.28,70.7c-0.17,0-0.33-0.08-0.43-0.24c-0.72-1.17-1.46-2.27-2.21-3.29 c-0.16-0.22-0.12-0.54,0.11-0.7c0.22-0.17,0.54-0.12,0.7,0.11c0.76,1.04,1.52,2.17,2.25,3.35c0.14,0.24,0.07,0.54-0.16,0.69 C85.46,70.68,85.37,70.7,85.28,70.7z M12.33,69.44c-0.19,0-0.37-0.11-0.45-0.29c-0.57-1.21-0.98-2.54-1.22-3.94 c-0.05-0.27,0.14-0.53,0.41-0.58c0.27-0.05,0.53,0.14,0.58,0.41c0.22,1.31,0.6,2.55,1.13,3.68c0.12,0.25,0.01,0.55-0.24,0.67 C12.47,69.43,12.4,69.44,12.33,69.44z M42.51,65.53c-0.13,0-0.27-0.05-0.37-0.16c-0.19-0.2-0.18-0.52,0.02-0.71 c0.98-0.91,1.96-1.83,2.96-2.71c0.21-0.18,0.52-0.17,0.71,0.04c0.18,0.21,0.17,0.52-0.04,0.71c-0.99,0.88-1.96,1.79-2.94,2.7 C42.76,65.48,42.63,65.53,42.51,65.53z M80.53,64.28c-0.14,0-0.27-0.06-0.37-0.17c-0.18-0.2-0.37-0.4-0.56-0.6 c-0.71-0.75-1.46-1.47-2.25-2.15c-0.21-0.18-0.23-0.5-0.05-0.71c0.18-0.21,0.5-0.23,0.71-0.05c0.81,0.7,1.6,1.45,2.33,2.22 c0.19,0.21,0.39,0.41,0.57,0.62c0.19,0.21,0.17,0.52-0.04,0.71C80.77,64.24,80.65,64.28,80.53,64.28z M10.99,61.65 c-0.01,0-0.03,0-0.04,0c-0.28-0.02-0.48-0.26-0.46-0.54c0.01-0.14,0.02-0.28,0.04-0.42c0.12-1.17,0.37-2.38,0.72-3.6 c0.08-0.26,0.35-0.42,0.62-0.34c0.27,0.08,0.42,0.35,0.34,0.62c-0.33,1.16-0.56,2.31-0.68,3.43c-0.01,0.13-0.03,0.27-0.04,0.4 C11.46,61.45,11.24,61.65,10.99,61.65z M48.53,60.26c-0.15,0-0.3-0.07-0.4-0.19c-0.17-0.22-0.13-0.53,0.09-0.7 c1.17-0.9,2.26-1.65,3.35-2.29c0.24-0.14,0.54-0.06,0.69,0.17c0.14,0.24,0.06,0.54-0.17,0.68c-1.05,0.62-2.11,1.35-3.25,2.23 C48.74,60.22,48.63,60.26,48.53,60.26z M74.47,59.1c-0.09,0-0.19-0.03-0.27-0.08c-1.11-0.72-2.27-1.36-3.44-1.89 c-0.25-0.12-0.36-0.41-0.25-0.66c0.11-0.25,0.41-0.36,0.66-0.25c1.21,0.55,2.41,1.21,3.57,1.96c0.23,0.15,0.3,0.46,0.15,0.69 C74.79,59.02,74.63,59.1,74.47,59.1z M55.42,56.26c-0.2,0-0.39-0.12-0.47-0.32c-0.1-0.26,0.03-0.55,0.29-0.64 c0.76-0.29,1.55-0.53,2.33-0.71c0.54-0.13,1.09-0.23,1.64-0.31c0.27-0.04,0.53,0.15,0.57,0.42s-0.15,0.53-0.42,0.57 c-0.52,0.07-1.04,0.17-1.55,0.29c-0.74,0.18-1.48,0.4-2.21,0.68C55.53,56.25,55.47,56.26,55.42,56.26z M67.21,55.81 c-0.04,0-0.09-0.01-0.13-0.02c-1.29-0.35-2.58-0.57-3.84-0.66c-0.28-0.02-0.48-0.26-0.46-0.54c0.02-0.28,0.27-0.5,0.54-0.46 c1.33,0.1,2.68,0.33,4.03,0.7c0.27,0.07,0.42,0.35,0.35,0.61C67.63,55.67,67.43,55.81,67.21,55.81z M13.13,53.98 c-0.07,0-0.14-0.01-0.21-0.05c-0.25-0.12-0.36-0.41-0.25-0.66c0.53-1.16,1.15-2.33,1.89-3.58c0.14-0.24,0.45-0.32,0.69-0.18 c0.24,0.14,0.32,0.45,0.18,0.69c-0.72,1.22-1.33,2.36-1.85,3.49C13.5,53.88,13.32,53.98,13.13,53.98z M17.16,47.08 c-0.1,0-0.2-0.03-0.28-0.09c-0.23-0.16-0.29-0.47-0.13-0.69c0.76-1.11,1.56-2.2,2.37-3.26c0.17-0.22,0.48-0.26,0.7-0.09 c0.22,0.17,0.26,0.48,0.09,0.7c-0.8,1.04-1.59,2.12-2.34,3.21C17.47,47,17.32,47.08,17.16,47.08z M22.05,40.76 c-0.12,0-0.23-0.04-0.33-0.12c-0.21-0.18-0.23-0.5-0.05-0.71c0.88-1.01,1.8-2,2.73-2.96c0.19-0.2,0.51-0.2,0.71-0.01 c0.2,0.19,0.2,0.51,0.01,0.71c-0.92,0.94-1.83,1.92-2.69,2.92C22.33,40.7,22.19,40.76,22.05,40.76z M49.83,38.21 c-0.25,0-0.47-0.19-0.5-0.44c-0.03-0.27,0.16-0.52,0.44-0.55c1.19-0.14,2.31-0.44,3.32-0.9c0.11-0.05,0.22-0.1,0.33-0.16 c0.25-0.12,0.55-0.03,0.67,0.22c0.12,0.25,0.03,0.55-0.22,0.67c-0.12,0.06-0.25,0.12-0.37,0.18c-1.11,0.5-2.33,0.83-3.62,0.98 C49.87,38.21,49.85,38.21,49.83,38.21z M45.84,38.13c-0.02,0-0.05,0-0.07,0c-1.27-0.18-2.61-0.49-3.98-0.94 c-0.26-0.09-0.41-0.37-0.32-0.63c0.09-0.26,0.37-0.4,0.63-0.32c1.31,0.43,2.59,0.73,3.8,0.9c0.27,0.04,0.46,0.29,0.43,0.56 C46.3,37.95,46.09,38.13,45.84,38.13z M38.25,35.72c-0.07,0-0.15-0.02-0.22-0.05c-1.21-0.58-2.4-1.25-3.54-1.98 c-0.23-0.15-0.3-0.46-0.15-0.69s0.46-0.3,0.69-0.15c1.11,0.71,2.26,1.36,3.43,1.92c0.25,0.12,0.35,0.42,0.23,0.67 C38.61,35.61,38.44,35.72,38.25,35.72z M27.63,35.03c-0.14,0-0.27-0.05-0.37-0.16c-0.19-0.2-0.17-0.52,0.03-0.71 c0.99-0.9,2.02-1.79,3.05-2.63c0.21-0.17,0.53-0.14,0.7,0.07c0.17,0.21,0.14,0.53-0.07,0.7c-1.02,0.83-2.03,1.7-3.01,2.59 C27.88,34.99,27.76,35.03,27.63,35.03z M56.71,34.56c-0.11,0-0.22-0.04-0.31-0.11c-0.22-0.17-0.25-0.49-0.08-0.7 c0.81-1.03,1.38-2.19,1.63-3.37c0.06-0.27,0.32-0.44,0.6-0.38c0.27,0.06,0.44,0.33,0.38,0.6c-0.29,1.32-0.92,2.63-1.83,3.77 C57,34.5,56.86,34.56,56.71,34.56z M31.54,31.4c-0.11,0-0.22-0.04-0.32-0.11c-1.04-0.86-2.04-1.79-2.97-2.76 c-0.19-0.2-0.18-0.52,0.02-0.71c0.2-0.19,0.52-0.18,0.71,0.02c0.91,0.95,1.88,1.85,2.89,2.68c0.21,0.18,0.24,0.49,0.07,0.7 C31.82,31.34,31.68,31.4,31.54,31.4z M33.83,29.98c-0.15,0-0.31-0.07-0.41-0.21c-0.16-0.22-0.11-0.54,0.11-0.7 c1.09-0.79,2.21-1.55,3.33-2.27c0.23-0.15,0.54-0.08,0.69,0.15c0.15,0.23,0.08,0.54-0.15,0.69c-1.11,0.71-2.21,1.46-3.28,2.24 C34.04,29.95,33.94,29.98,33.83,29.98z M58.15,27.07c-0.2,0-0.38-0.12-0.46-0.31l-0.09-0.21c-0.47-1.02-1.23-1.89-2.25-2.59 c-0.23-0.16-0.29-0.47-0.13-0.69c0.15-0.23,0.47-0.29,0.69-0.13c1.18,0.8,2.05,1.81,2.6,3c0.04,0.08,0.08,0.17,0.11,0.25 c0.1,0.26-0.02,0.55-0.27,0.65C58.28,27.05,58.21,27.07,58.15,27.07z M40.57,25.67c-0.18,0-0.35-0.09-0.44-0.26 c-0.13-0.24-0.05-0.55,0.19-0.68l0.33-0.18c1.25-0.69,2.3-1.21,3.29-1.64c0.25-0.11,0.55,0.01,0.66,0.26s-0.01,0.55-0.26,0.66 c-0.96,0.41-1.98,0.92-3.2,1.59l-0.32,0.18C40.74,25.65,40.65,25.67,40.57,25.67z M26.01,25.64c-0.15,0-0.3-0.07-0.4-0.2 c-0.82-1.08-1.58-2.21-2.26-3.37c-0.14-0.24-0.06-0.54,0.18-0.68c0.24-0.14,0.54-0.06,0.68,0.18c0.66,1.12,1.4,2.22,2.2,3.27 c0.17,0.22,0.12,0.53-0.1,0.7C26.22,25.61,26.12,25.64,26.01,25.64z M47.95,22.67c-0.24,0-0.45-0.17-0.49-0.41 c-0.05-0.27,0.13-0.53,0.4-0.58c0.73-0.14,1.45-0.21,2.14-0.23l0.25,0c0.58,0,1.18,0.05,1.76,0.15c0.27,0.05,0.46,0.3,0.41,0.58 c-0.05,0.27-0.31,0.46-0.58,0.41c-0.53-0.09-1.07-0.13-1.59-0.13l-0.23,0c-0.64,0.01-1.3,0.09-1.98,0.21 C48.01,22.67,47.98,22.67,47.95,22.67z M21.96,18.77c-0.19,0-0.38-0.11-0.46-0.3c-0.55-1.24-1.02-2.52-1.41-3.81 c-0.08-0.26,0.07-0.54,0.33-0.62c0.26-0.08,0.54,0.07,0.62,0.33c0.37,1.24,0.83,2.49,1.36,3.69c0.11,0.25,0,0.55-0.26,0.66 C22.09,18.75,22.02,18.77,21.96,18.77z" style="fill: inherit;"/></g></svg>